<svg width="500" height="500" xmlns="http://www.w3.org/2000/svg">

 <g>
  <title>background</title>
  <rect fill="none" id="canvas_background" height="502" width="502" y="-1" x="-1"/>
 </g>
 <g>
  <title>Layer 1</title>
  <path id="svg_1" fill-rule="evenodd" fill="#ffffff" d="m68.29,431.711c0,20.078 16.264,36.34 36.343,36.34l290.734,0c20.078,0 36.345,-16.262 36.345,-36.34l0,-181.711c0,-20.079 -16.267,-36.342 -36.345,-36.342l-218.05,0l0,-63.597c0,-40.157 32.525,-72.685 72.683,-72.685c40.158,0 72.685,32.528 72.685,72.685l0,4.541c0,12.538 10.176,22.715 22.711,22.715c12.537,0 22.717,-10.177 22.717,-22.715l0,-4.541c0,-65.232 -52.882,-118.111 -118.112,-118.111c-65.24,0 -118.111,52.879 -118.111,118.111l0,63.597l-27.256,0c-20.079,0 -36.343,16.263 -36.343,36.342l0,181.711l-0.001,0zm145.368,-118.112c0,-20.078 16.263,-36.341 36.342,-36.341s36.341,16.263 36.341,36.341c0,12.812 -6.634,24.079 -16.625,30.529c0,0 3.55,21.446 7.542,46.699c0,7.538 -6.087,13.625 -13.629,13.625l-27.258,0c-7.541,0 -13.627,-6.087 -13.627,-13.625l7.542,-46.699c-9.992,-6.45 -16.628,-17.718 -16.628,-30.529z" clip-rule="evenodd"/>
 </g>
</svg>